<?xml version="1.0" encoding="UTF-8" standalone="no"?>
<!DOCTYPE svg PUBLIC "-//W3C//DTD SVG 1.1//EN" "http://www.w3.org/Graphics/SVG/1.1/DTD/svg11.dtd">
<svg version="1.1" xmlns="http://www.w3.org/2000/svg" xmlns:xlink="http://www.w3.org/1999/xlink" preserveAspectRatio="xMidYMid meet" viewBox="0 0 640 640" width="640" height="640"><defs><path d="M324.28 190.45L330.64 171.59C343.51 170.68 350.66 170.18 352.09 170.08C352.09 170.08 352.09 170.08 352.09 170.08C365.24 170.08 377.78 175.21 386.63 184.21C391.64 189.29 384.27 181.81 387.16 184.74C397.51 195.25 416.37 190.67 419.8 176.8C420.69 173.18 418.41 182.4 420.09 175.59C420.96 172.11 426.39 172.31 426.94 175.85C433.48 217.95 429.17 240.19 414.01 242.59C406.18 243.83 405.9 250.2 413.18 261.71C422.2 275.98 433.4 288.96 446.45 300.27C451.52 304.66 442.93 297.22 446.97 300.72C463.41 314.97 477.18 331.65 487.72 350.07C502.65 376.17 507.5 390.09 502.27 391.84C488.76 396.37 518.96 416.73 516.57 425.78C515.46 430 523.36 443.03 524.52 452.19C525.84 462.71 533.25 471.37 533.25 477.43C533.25 482.59 533.91 492.35 535.21 506.68C536.02 515.53 535.05 524.45 532.35 532.97C530.78 537.9 532.19 533.46 531.13 536.8C526.89 550.21 517.25 561.59 504.2 568.61C503.18 569.15 507.24 566.97 502.92 569.3C500.38 570.67 497.65 571.71 494.82 572.43C486.62 574.48 476.94 576.89 471.41 578.28C459.78 581.18 447.66 581.92 435.72 580.46C425.84 579.24 401.14 576.21 361.62 571.36C316.74 569.42 288.7 568.2 277.48 567.71C277.48 567.71 236.97 565.36 236.97 565.36C228.53 564.76 230.97 564.93 224.41 564.46C204.68 563.02 184.85 563.11 165.13 564.72C159.93 565.14 162.68 564.92 154.66 565.57C144.73 566.38 134.87 563.46 127.28 557.49C124 554.91 128.64 558.56 126.02 556.5C116.31 548.85 110.23 537.97 109.1 526.22C108.5 520.01 107.94 514.22 107.21 506.64C106.53 499.54 109.94 492.62 116.2 488.46C120.58 485.55 114.4 489.66 116.47 488.28C119.96 485.96 117.09 480.94 113.07 482.3C107.36 484.2 104.51 483.84 104.51 481.2C104.51 463.85 128.81 442.47 135.15 440.96C141.51 439.45 164.57 431.06 145.5 430.31C126.43 429.56 195.55 415.23 194.76 372.98C194.33 350.11 210.26 330.24 242.53 313.39C252.57 308.15 259.49 298.97 261.33 288.44C262.63 281.08 265.87 262.68 271.04 233.22C277.37 217.56 281.33 207.76 282.91 203.85C283.51 202.36 283.58 200.74 283.12 199.22C277.94 182.22 282.77 198.07 282.5 197.19C278.82 185.12 296.79 178.14 303.52 189.02C303.65 189.2 303.94 189.69 304.42 190.45" id="b4KfYxuhpR"></path><path d="M324.28 190.45L330.64 171.59C343.51 170.68 350.66 170.18 352.09 170.08C352.09 170.08 352.09 170.08 352.09 170.08C365.24 170.08 377.78 175.21 386.63 184.21C391.64 189.29 384.27 181.81 387.16 184.74C397.51 195.25 416.37 190.67 419.8 176.8C420.69 173.18 418.41 182.4 420.09 175.59C420.96 172.11 426.39 172.31 426.94 175.85C433.48 217.95 429.17 240.19 414.01 242.59C406.18 243.83 405.9 250.2 413.18 261.71C422.2 275.98 433.4 288.96 446.45 300.27C451.52 304.66 442.93 297.22 446.97 300.72C463.41 314.97 477.18 331.65 487.72 350.07C502.65 376.17 507.5 390.09 502.27 391.84C488.76 396.37 518.96 416.73 516.57 425.78C515.46 430 523.36 443.03 524.52 452.19C525.84 462.71 533.25 471.37 533.25 477.43C533.25 482.59 533.91 492.35 535.21 506.68C536.02 515.53 535.05 524.45 532.35 532.97C530.78 537.9 532.19 533.46 531.13 536.8C526.89 550.21 517.25 561.59 504.2 568.61C503.18 569.15 507.24 566.97 502.92 569.3C500.38 570.67 497.65 571.71 494.82 572.43C486.62 574.48 476.94 576.89 471.41 578.28C459.78 581.18 447.66 581.92 435.72 580.46C425.84 579.24 401.14 576.21 361.62 571.36C316.74 569.42 288.7 568.2 277.48 567.71C277.48 567.71 236.97 565.36 236.97 565.36C228.53 564.76 230.97 564.93 224.41 564.46C204.68 563.02 184.85 563.11 165.13 564.72C159.93 565.14 162.68 564.92 154.66 565.57C144.73 566.38 134.87 563.46 127.28 557.49C124 554.91 128.64 558.56 126.02 556.5C116.31 548.85 110.23 537.97 109.1 526.22C108.5 520.01 107.94 514.22 107.21 506.64C106.53 499.54 109.94 492.62 116.2 488.46C120.58 485.55 114.4 489.66 116.47 488.28C119.96 485.96 117.09 480.94 113.07 482.3C107.36 484.2 104.51 483.84 104.51 481.2C104.51 463.85 128.81 442.47 135.15 440.96C141.51 439.45 164.57 431.06 145.5 430.31C126.43 429.56 195.55 415.23 194.76 372.98C194.33 350.11 210.26 330.24 242.53 313.39C252.57 308.15 259.49 298.97 261.33 288.44C262.63 281.08 265.87 262.68 271.04 233.22C277.37 217.56 281.33 207.76 282.91 203.85C283.51 202.36 283.58 200.74 283.12 199.22C277.94 182.22 282.77 198.07 282.5 197.19C278.82 185.12 296.79 178.14 303.52 189.02C303.65 189.2 303.94 189.69 304.42 190.45" id="c1dDMJeNKf"></path><path d="M304 192.21C308.93 198.51 312.01 202.45 313.25 204.04C314.97 206.24 318.88 205.57 319.51 202.95C320.4 199.28 321.33 195.41 322.21 191.78C323.33 187.15 322.55 182.31 320.03 178.12C318.84 176.14 317.94 174.64 316.44 172.15C314.93 169.64 312.2 167.89 309.02 167.37C304.34 166.6 299.83 165.86 296.27 165.28C289.78 164.22 283.15 166.55 279.32 171.25C267.86 185.32 261.37 190.92 259.84 188.07C259.18 186.84 232.8 183.39 223.44 171.15C220.87 167.79 225.87 163.78 225.43 158.97C224.97 153.8 247.5 141.79 249.71 136.98C253.08 129.61 249.36 111.62 252.61 104.52C253.12 103.4 257.26 100.07 265.02 94.54C274.63 102.38 279.85 106.88 280.69 108.06C284.35 113.19 290.35 121.58 294.18 126.95C295.57 128.88 298.99 128.02 298.98 125.74C298.95 120.08 298.91 110.36 298.88 104.52C298.86 99.97 300.8 95.58 304.31 92.23C306.27 90.38 303.46 93.05 304.6 91.95C306.6 90.05 307.78 82.03 313.25 76.46C321.98 67.56 336.03 60.74 339.4 63.61C339.76 63.92 364.99 64.69 366.43 65.92C370.83 77.15 345.58 99.43 346.67 102.24C347.72 104.89 358.14 110.39 359.91 108.06C364.32 102.25 394.47 88.76 398.27 83.76C400.96 80.19 420.5 84.95 421.41 89.15C423.19 97.27 378.92 109.42 380.95 118.73C381.56 121.46 390.91 132.76 393.66 131.38C400.97 127.73 400.13 126.31 406.33 123.22C409.66 121.56 443.52 137.26 441.8 140.25C437.41 147.86 398.43 150.71 393.66 158.97C391.28 163.1 386.44 165.7 381.14 165.7C378.36 165.7 378.08 165.7 375.15 165.7C370.37 165.7 366.09 168.31 364.42 172.23C363.09 175.4 360.83 180.73 359.23 184.48C358.27 186.76 358.53 189.29 359.91 191.38C361.97 194.46 367.1 202.17 375.32 214.5" id="b6PXmxDGZ8"></path><path d="M300.6 187.95C305.37 194.26 308.35 198.2 309.55 199.78C311.21 201.99 314.99 201.31 315.6 198.69C316.46 195.02 317.37 191.15 318.21 187.53C319.29 182.89 318.54 178.05 316.11 173.86C314.95 171.88 314.09 170.38 312.63 167.89C311.17 165.39 308.54 163.63 305.46 163.11C300.93 162.34 296.57 161.61 293.12 161.03C286.85 159.96 261.99 177.57 258.28 182.27C247.2 196.34 231.21 183.08 229.73 180.23C228.92 178.65 220.73 181.05 218.77 158.68C218.32 153.51 242.49 151.44 244.62 146.63C247.89 139.26 245.32 111.65 248.47 104.55C250.07 100.94 266.47 86.23 268.74 89.52C272.28 94.66 287.4 117.33 291.1 122.69C292.44 124.63 295.75 123.77 295.74 121.48C295.73 118.09 295.7 113.23 295.68 108.63C295.67 105.56 295.66 102.6 295.65 100.26C295.63 95.72 309.24 75.15 312.63 71.8C314.52 69.94 329.5 62.21 330.61 61.11C335.61 56.18 373.79 60.04 379.1 64.7C379.45 65.01 347.37 93.93 348.76 95.16C353.02 106.39 352.96 101.74 354.02 104.55C355.03 107.19 370.5 94.8 372.21 92.47C376.48 86.66 391.93 86.3 395.6 81.3C398.21 77.73 430.01 85.32 430.89 89.52C432.62 97.64 377.13 101.26 379.1 110.56C379.68 113.3 376.43 122.86 379.1 121.48C381.54 120.22 384.24 128.83 387.32 127.24C393.18 124.22 411.94 123.5 415.87 121.48C419.09 119.82 450.13 138.4 448.46 141.39C446.72 144.51 436.91 145.92 425.61 147.07C416.02 148.05 405.37 148.83 397.68 150.32C392.34 151.35 388.44 152.71 387.32 154.71C385.02 158.84 380.33 161.45 375.21 161.45C372.52 161.45 372.25 161.45 369.42 161.45C364.8 161.45 360.65 164.05 359.04 167.97C357.75 171.14 355.57 176.47 354.02 180.23C353.09 182.5 353.34 185.03 354.68 187.12C356.67 190.2 361.63 197.91 369.58 210.25" id="abseFmnnf"></path><path d="M303.51 160.19C310.34 164.82 314.61 167.72 316.32 168.88C319.66 171.14 322.43 174.04 324.46 177.37C325.89 179.74 324.67 177.72 325.48 179.06C329.47 185.63 330.96 193.24 329.7 200.68C329.5 201.83 330.76 194.42 330.54 195.72C329.34 202.78 326.45 209.5 322.09 215.39C321.42 216.29 319.75 218.53 317.09 222.13" id="a2nAykRVPd"></path></defs><g><g><g><g><use xlink:href="#b4KfYxuhpR" opacity="1" fill="#050606" fill-opacity="1"></use><g><use xlink:href="#b4KfYxuhpR" opacity="1" fill-opacity="0" stroke="#000000" stroke-width="1" stroke-opacity="0"></use></g></g><g><use xlink:href="#c1dDMJeNKf" opacity="1" fill="#000000" fill-opacity="0"></use><g><use xlink:href="#c1dDMJeNKf" opacity="1" fill-opacity="0" stroke="#363e3e" stroke-width="15" stroke-opacity="1"></use></g></g><g><use xlink:href="#b6PXmxDGZ8" opacity="1" fill="#000000" fill-opacity="1"></use><g><use xlink:href="#b6PXmxDGZ8" opacity="1" fill-opacity="0" stroke="#000000" stroke-width="1" stroke-opacity="0"></use></g></g><g><use xlink:href="#abseFmnnf" opacity="1" fill="#000000" fill-opacity="0"></use><g><use xlink:href="#abseFmnnf" opacity="1" fill-opacity="0" stroke="#363e3e" stroke-width="16" stroke-opacity="1"></use></g></g><g><use xlink:href="#a2nAykRVPd" opacity="1" fill="#000000" fill-opacity="0"></use><g><use xlink:href="#a2nAykRVPd" opacity="1" fill-opacity="0" stroke="#363e3e" stroke-width="12" stroke-opacity="1"></use></g></g></g></g></g></svg>